# Blender v2.78 (sub 0) OBJ File: 'boat.blend'
# www.blender.org
mtllib boat.mtl
o Cube
v 2.771309 -0.159050 -1.689378
v 2.771308 -0.159050 1.689378
v -2.745885 0.223279 1.614884
v -2.745884 0.223279 -1.614887
v 2.578032 -0.218677 -1.012735
v 2.578031 -0.218677 1.012736
v -2.081868 -0.231088 0.753356
v -2.081867 -0.231087 -0.753358
v 4.094677 -0.617334 0.000000
v -2.681878 -0.546190 -0.000002
v 6.018829 1.002427 0.000001
v -2.726903 1.000828 -0.000001
v -0.191761 -0.069258 -1.757842
v -0.191762 -0.069258 1.757841
v -0.355124 1.000941 -2.391139
v -0.355125 1.000941 2.391138
v 1.211122 -0.890319 -0.000000
v 0.581149 -1.000000 -0.000001
v 6.303088 1.000000 0.000001
v 3.009275 0.986796 2.209291
v -0.374991 1.000000 -2.552318
v -2.879188 0.970222 -1.648533
v -0.374993 1.000000 2.552317
v -2.879189 0.970222 1.648531
v -2.885259 0.999999 -0.000001
v 3.009277 0.986796 -2.209290
v 5.190515 0.331511 0.000000
v 2.953932 0.987592 2.055734
v -0.343235 0.421576 -1.778805
v -2.721235 0.971617 -1.537183
v -0.343236 0.421575 1.913752
v -2.721236 0.971617 1.537180
v -2.671818 0.351194 -0.000001
v 2.953934 0.987593 -2.055733
v 4.088085 -0.192667 0.000000
v 2.792666 0.311925 1.608275
v -0.219329 -0.134600 -1.298282
v -2.460181 0.323631 -1.212713
v -0.219330 -0.134600 1.298281
v -2.336700 0.323631 1.212710
v -2.084696 -0.205998 -0.000001
v 2.792667 0.311926 -1.608274
v 0.857386 0.762305 -2.021232
v 0.898006 0.620931 2.029837
v 1.993918 0.641607 1.913502
v 1.951569 0.784617 -1.925168
v -0.343235 0.421576 -1.778805
v -2.460181 0.323631 -1.212713
v -0.343236 0.421575 1.913752
v -2.336700 0.323631 1.212710
v -2.671818 0.351194 -0.000001
vt 0.2750 0.4695
vt 0.2870 0.5522
vt 0.2059 0.5885
vt 0.1959 0.5015
vt 0.3776 0.4280
vt 0.6410 0.3214
vt 0.6619 0.4573
vt 0.4544 0.6601
vt 0.3117 0.4547
vt 0.3162 0.4528
vt 0.3279 0.4810
vt 0.3145 0.4777
vt 0.3238 0.6325
vt 0.1904 0.6408
vt 0.0987 0.5408
vt 0.1445 0.3851
vt 0.1754 0.4187
vt 0.2625 0.2918
vt 0.2576 0.3890
vt 0.3064 0.4326
vt 0.3168 0.4197
vt 0.3662 0.1694
vt 0.6135 0.1883
vt 0.3358 0.4211
vt 0.3283 0.4479
vt 0.3438 0.4655
vt 0.3172 0.4524
vt 0.3290 0.4807
vt 0.1357 0.3738
vt 0.2641 0.2796
vt 0.3292 0.6419
vt 0.1867 0.6572
vt 0.0854 0.5462
vt 0.3179 0.4191
vt 0.3214 0.4507
vt 0.3314 0.8210
vt 0.2740 0.6969
vt 0.2655 0.4549
vt 0.0412 0.2823
vt 0.2871 0.1634
vt 0.3880 0.7250
vt 0.1356 0.8076
vt 0.0001 0.5807
vt 0.3601 0.4264
vt 0.4231 0.6995
vt 0.3589 0.6574
vt 0.3079 0.4104
vt 0.3259 0.4176
vt 0.3364 0.4760
vt 0.3566 0.3879
vt 0.4304 0.5405
vt 0.3897 0.6185
vt 0.2931 0.4357
vt 0.3621 0.0001
vt 0.6484 0.0459
vt 0.7398 0.5541
vt 0.5076 0.8095
vt 0.7398 0.2815
vt 0.3674 0.4061
vt 0.3350 0.6154
vt 0.2931 0.5632
vt 0.3209 0.3826
vt 0.7400 0.3198
vt 0.7464 0.0001
vt 0.7756 0.1250
vt 0.7705 0.2304
vt 0.9999 0.0016
vt 0.9764 0.3198
vt 0.9576 0.2208
vt 0.9624 0.1156
vt 0.9138 0.3201
vt 0.9475 0.3641
vt 0.7400 0.3641
vt 0.7737 0.3201
vt 0.5365 0.3122
vt 0.6899 0.3084
vt 0.6588 0.4734
vt 0.6225 0.5107
vt 0.5583 0.4593
vn -0.1256 -0.8981 0.4216
vn 0.1355 0.9594 -0.2474
vn 0.4995 -0.5657 0.6561
vn -0.2041 -0.4354 0.8768
vn -0.9892 -0.1455 -0.0154
vn -0.2041 -0.4354 -0.8768
vn -0.9892 -0.1455 0.0154
vn 0.4995 -0.5657 -0.6561
vn 0.1355 0.9594 0.2474
vn -0.1256 -0.8981 -0.4216
vn 0.0456 -0.9166 -0.3971
vn -0.1184 0.8937 0.4328
vn 0.0474 -0.5106 -0.8585
vn 0.0474 -0.5106 0.8585
vn -0.1184 0.8937 -0.4328
vn 0.0456 -0.9166 0.3971
vn 0.0039 0.9999 0.0124
vn -0.0123 0.9999 -0.0005
vn -0.0123 0.9999 0.0005
vn -0.0005 0.9998 -0.0185
vn 0.0039 0.9999 -0.0124
vn -0.0005 0.9998 0.0185
vn 0.0045 1.0000 -0.0050
vn 0.0045 1.0000 0.0050
vn -0.4616 0.5662 -0.6829
vn 0.2203 0.6223 0.7511
vn 0.2572 0.5854 -0.7689
vn 0.9649 0.2528 0.0710
vn -0.4616 0.5662 0.6829
vn 0.9330 0.3432 -0.1085
vn -0.0473 0.6477 0.7604
vn -0.0681 0.5971 -0.7993
vn -0.3675 0.7609 -0.5348
vn 0.1663 0.6796 0.7145
vn 0.1820 0.7151 -0.6749
vn 0.7406 0.6690 0.0629
vn -0.3675 0.7609 0.5348
vn 0.7684 0.6295 -0.1152
vn -0.0315 0.7046 0.7089
vn -0.0420 0.7452 -0.6656
vn 0.0865 -0.5440 0.8346
vn 0.0677 -0.7338 -0.6760
vn 0.9761 0.2175 0.0000
vn -0.0193 0.9992 0.0362
vn -0.0402 0.9992 0.0007
usemtl Material.002
s off
f 18/1/1 14/2/1 3/3/1 10/4/1
f 17/5/2 41/6/2 7/7/2 39/8/2
f 9/9/3 19/10/3 20/11/3 2/12/3
f 14/2/4 23/13/4 24/14/4 3/3/4
f 10/4/5 25/15/5 22/16/5 4/17/5
f 21/18/6 13/19/6 4/17/6 22/16/6
f 3/3/7 24/14/7 25/15/7 10/4/7
f 1/20/8 26/21/8 19/10/8 9/9/8
f 37/22/9 8/23/9 41/6/9 17/5/9
f 13/19/10 18/1/10 10/4/10 4/17/10
f 1/20/11 9/9/11 18/1/11 13/19/11
f 5/24/12 37/22/12 17/5/12 35/25/12
f 26/21/13 1/20/13 13/19/13 21/18/13
f 2/12/14 20/11/14 23/13/14 14/2/14
f 35/25/15 17/5/15 39/8/15 6/26/15
f 9/9/16 2/12/16 14/2/16 18/1/16
f 11/27/17 28/28/17 20/11/17 19/10/17
f 30/29/18 15/30/18 21/18/18 22/16/18
f 16/31/19 32/32/19 24/14/19 23/13/19
f 12/33/20 30/29/20 22/16/20 25/15/20
f 34/34/21 11/27/21 19/10/21 26/21/21
f 32/32/22 12/33/22 25/15/22 24/14/22
f 15/30/23 34/34/23 26/21/23 21/18/23
f 28/28/24 16/31/24 23/13/24 20/11/24
f 27/35/25 36/36/25 28/37/25 11/38/25
f 38/39/26 29/40/26 15/30/26 30/29/26
f 31/41/27 40/42/27 32/32/27 16/31/27
f 33/43/28 38/39/28 30/29/28 12/33/28
f 42/44/29 27/45/29 11/46/29 34/47/29
f 40/42/30 33/43/30 12/33/30 32/32/30
f 29/40/31 42/48/31 34/34/31 15/30/31
f 36/49/32 31/41/32 16/31/32 28/28/32
f 35/50/33 6/51/33 36/52/33 27/53/33
f 8/23/34 37/22/34 29/54/34 38/55/34
f 39/8/35 7/7/35 40/56/35 31/57/35
f 41/6/36 8/23/36 38/55/36 33/58/36
f 5/59/37 35/60/37 27/61/37 42/62/37
f 7/7/38 41/6/38 33/58/38 40/56/38
f 37/22/39 5/24/39 42/48/39 29/40/39
f 6/26/40 39/8/40 31/41/40 36/49/40
f 28/63/41 16/64/41 44/65/41 45/66/41
f 15/67/42 34/68/42 46/69/42 43/70/42
f 37/71/43 29/72/43 31/73/43 39/74/43
f 43/70/44 44/65/44 45/66/44 46/69/44
f 31/75/45 29/76/45 38/77/45 33/78/45 40/79/45
l 31 49
l 50 40
l 29 47
l 51 33
l 48 38
